<svg width="20" height="20" viewBox="0 0 20 20" fill="none" xmlns="http://www.w3.org/2000/svg">
<path fill-rule="evenodd" clip-rule="evenodd" d="M6.01375 1.9287C3.04286 3.39877 1 6.46082 1 10C1 14.9706 5.02944 19 10 19C14.9706 19 19 14.9706 19 10C19 5.02944 14.9706 1 10 1C8.61155 1 7.29654 1.31441 6.12227 1.87591C6.08513 1.89035 6.04883 1.90794 6.01375 1.9287ZM6.20038 3.51636C4.35529 4.59997 3.01372 6.44868 2.61145 8.62668L4.8404 8.83059C6.53595 8.98319 8.20297 8.714 9.71369 8.08883C9.3265 7.4682 8.90106 6.86973 8.43885 6.29684L6.20038 3.51636ZM7.59547 2.87922L9.59555 5.3636C10.1248 6.01962 10.6095 6.70658 11.0476 7.42008C12.4408 6.59051 13.6424 5.4302 14.5283 4.00352C13.2691 3.05114 11.7005 2.48624 10 2.48624C9.15907 2.48624 8.35041 2.62438 7.59547 2.87922ZM10.4527 9.38989C8.67939 10.1566 6.71073 10.4912 4.70713 10.3108L4.70607 10.3108L2.487 10.1077C2.51356 11.9981 3.23822 13.7197 4.41478 15.0262C5.96413 12.7005 8.26437 11.0357 10.8724 10.2613C10.7403 9.96716 10.6003 9.67659 10.4527 9.38989ZM12.348 9.92447C12.1715 9.51509 11.9811 9.11185 11.7771 8.7154C13.3044 7.81231 14.6321 6.56259 15.6359 5.03058C16.8046 6.35505 17.5138 8.09471 17.5138 10L17.5137 10.0244L15.2948 9.82144L15.2937 9.82134C14.2966 9.73156 13.3081 9.76935 12.348 9.92447ZM11.4283 11.6476C9.02367 12.3266 6.9079 13.8679 5.52876 16.0392C6.77815 16.9657 8.32507 17.5138 10 17.5138C10.9963 17.5138 11.9473 17.3199 12.8173 16.9677L11.9612 13.437C11.8137 12.8304 11.6357 12.2332 11.4283 11.6476ZM14.1725 16.2497L13.4053 13.0858C13.2622 12.4972 13.0926 11.9168 12.8971 11.3462C13.6378 11.2497 14.3959 11.2328 15.1599 11.3015L17.3634 11.5031C16.9628 13.476 15.7892 15.1682 14.1725 16.2497Z" fill="white"/>
</svg>
