<svg width="64" height="18" viewBox="0 0 64 18" fill="none" xmlns="http://www.w3.org/2000/svg">
<path d="M8.14667 16C12.6432 16 14.3346 13.8794 14.3346 10.3382V2H11.055V10.3382C11.055 12.2735 10.5806 12.9941 8.14667 12.9941C5.69213 12.9941 5.2796 12.2324 5.2796 10.1941V9.59706H2V10.1941C2 13.8382 3.67074 16 8.14667 16Z" fill="#F1A2B7"/>
<path d="M20.0159 15.7941V10.7912H22.0579C23.6668 10.7912 24.1824 11.1412 24.7393 12.2118L26.637 15.7941H30.226L28.2252 12.0882C27.7095 11.1206 27.2351 10.4618 25.9976 10.1324V9.96765C28.5965 9.72059 29.8959 8.38235 29.8959 6.13824C29.8959 3.50294 27.9571 2 24.5537 2H16.9219V15.7941H20.0159ZM20.0159 4.77941H24.5331C25.9976 4.77941 26.6576 5.25294 26.6576 6.61176C26.6576 8.05294 25.9976 8.46471 24.5331 8.46471H20.0159V4.77941Z" fill="#F1A2B7"/>
<path d="M39.062 15.7941C43.4967 15.7941 46.3019 13.2206 46.3019 8.89706C46.3019 4.57353 43.4967 2 39.062 2H32.3996V15.7941H39.062ZM39.062 4.77941C41.8672 4.77941 43.0016 5.58235 43.0016 8.89706C43.0016 12.2118 41.8672 13.0147 39.062 13.0147H35.4936V4.77941H39.062Z" fill="#F1A2B7"/>
<path d="M51.7693 15.7941V9.14412L51.6455 6.61176H51.8518L53.6051 9.20588L58.6998 15.7941H62V2H58.906V8.65L59.0504 11.4294H58.8235L56.9259 8.52647L51.9756 2H48.6753V15.7941H51.7693Z" fill="#F1A2B7"/>
</svg>
