<svg width="1309" height="160" viewBox="0 0 1309 160" fill="none" xmlns="http://www.w3.org/2000/svg">
<path d="M46.0142 160C79.8266 160 92.3225 136.471 92.3225 92.4706V0H62.9204V92C62.9204 111.529 61.7443 117.176 46.0142 117.176C30.1371 117.176 29.4021 111.059 29.4021 89.6471V84H0V90.1176C0 135.765 12.3489 160 46.0142 160Z" fill="white"/>
<path d="M153.254 160C187.654 160 203.531 133.412 203.531 91.5294V0H175.894V88C175.894 110.353 171.924 117.176 153.254 117.176C134.584 117.176 130.614 110.353 130.614 88V0H102.976V91.5294C102.976 133.412 118.854 160 153.254 160Z" fill="white"/>
<path d="M242.45 157.647V104H253.77C264.502 104 267.442 107.294 270.97 119.059L282.731 157.647H314.633L302.431 118.118C298.755 106.118 295.521 98.3529 285.377 94.1176V91.7647C304.195 88 311.986 73.1765 311.986 48.2353C311.986 17.4118 298.314 0 272.294 0H214.813V157.647H242.45ZM242.45 39.7647H272C280.085 39.7647 283.025 42.8235 283.025 55.2941C283.025 68.7059 280.085 71.0588 272 71.0588H242.45V39.7647Z" fill="white"/>
<path d="M373.494 157.647C405.984 157.647 426.565 128.706 426.565 78.8235C426.565 28.9412 405.984 0 373.494 0H323.658V157.647H373.494ZM373.494 39.7647C390.989 39.7647 397.016 43.2941 397.016 78.8235C397.016 114.353 390.989 117.882 373.494 117.882H351.296V39.7647H373.494Z" fill="white"/>
<path d="M462.017 157.647L469.661 128.471H516.411L523.908 157.647H555.662L513.029 0H473.483L430.997 157.647H462.017ZM485.832 66.5882L492.154 40H494.065L500.533 66.5882L506.267 88.7059H480.099L485.832 66.5882Z" fill="white"/>
<path d="M589.259 157.647V96L588.083 65.8823H589.994L602.49 96.9412L631.598 157.647H661V0H633.362V60.9412L634.685 95.2941H632.774L618.367 59.0588L591.023 0H561.621V157.647H589.259Z" fill="white"/>
<path fill-rule="evenodd" clip-rule="evenodd" d="M799.443 80.2353L787.397 0H745.821L732.599 80.2353L728.632 115.765H726.723L724.078 80.2353L715.851 0H685L705.568 157.647H746.556L758.308 90.1176L765.213 40.7059H767.123L773.587 90.1176L783.871 157.647H824.859L847.336 0H817.073L807.817 80.2353L804.879 115.765H802.969L799.443 80.2353ZM811.767 81.2378L808.382 122.167H799.557L795.52 81.4883L784.247 6.40256H748.9L736.506 81.618L731.979 122.167H723.173L720.119 81.1334L712.457 6.40256H689.919L708.816 151.244H743.52L754.43 88.5578L762.012 34.3033H770.37L777.486 88.7022L787.011 151.244H821.671L842.323 6.40256H820.399L811.767 81.2378ZM1208.51 91.5294C1208.51 133.412 1224.38 160 1258.76 160C1293.13 160 1309 133.412 1309 91.5294V0H1281.38V88C1281.38 110.353 1277.41 117.176 1258.76 117.176C1240.1 117.176 1236.13 110.353 1236.13 88V0H1208.51V91.5294ZM1212.51 6.40256V91.5294C1212.51 111.151 1216.2 126.336 1223.41 136.706C1230.69 147.174 1242.16 153.597 1258.76 153.597C1275.36 153.597 1286.82 147.174 1294.1 136.706C1301.31 126.336 1305 111.151 1305 91.5294V6.40256H1285.38V88C1285.38 99.2935 1284.46 109.34 1279.65 115.86C1275.09 122.026 1268.03 123.579 1258.76 123.579C1249.49 123.579 1242.42 122.026 1237.87 115.86C1233.05 109.34 1232.13 99.2935 1232.13 88V6.40256H1212.51ZM1158.85 107.765V157.647H1131.23V107.529L1087.01 0H1121.24L1136.08 37.4118L1144.46 59.5294H1146.36L1154.74 37.4118L1169.58 0H1203.95L1158.85 107.765ZM1196.46 6.40256H1171.77L1158.14 40.7882L1148.62 65.932H1142.2L1132.68 40.7882L1119.05 6.40256H1094.43L1135.23 105.61V151.244H1154.85V105.817L1196.46 6.40256ZM886.174 122.068H938.228L945.72 151.244H968.689L929.545 6.40256H895.281L856.272 151.244H878.534L886.174 122.068ZM881.193 157.647L888.832 128.471H935.55L943.042 157.647H974.775L932.171 0H892.652L850.195 157.647H881.193ZM904.992 66.5882L911.309 40H913.219L919.683 66.5882L925.413 88.7059H899.263L904.992 66.5882ZM923.393 64.1999L931.399 95.1084H893.276L901.277 64.222L908.553 33.5974H915.953L923.393 64.1999ZM1004.35 91.9504H1058.18V151.244H1077.81V6.40256H1058.18V64.9908H1004.35V6.40256H984.727V151.244H1004.35V91.9504ZM1008.35 157.647H980.73V0H1008.35V58.5882H1054.19V0H1081.8V157.647H1054.19V98.3529H1008.35V157.647Z" fill="#F1A2B7"/>
</svg>
