<svg width="28" height="28" viewBox="0 0 28 28" fill="none" xmlns="http://www.w3.org/2000/svg">
<path fill-rule="evenodd" clip-rule="evenodd" d="M0 16.3073C0 16.3073 0.155826 13.5321 1.07646 12.1091C1.78534 11.0134 2.70159 10.6102 3.69497 10.1731C4.34687 9.88624 5.032 9.58477 5.71354 9.06336C7.20304 7.92381 7.67905 6.38065 8.13889 4.88992C8.87128 2.51562 9.56265 0.274305 14.2424 0.00846642C20.0388 -0.320798 22.3573 9.06336 22.3573 9.06336C22.3573 9.06336 26.1128 10.1578 27.16 12.1091C28.1646 13.981 27.9881 17.0397 27.9881 17.0397C27.9881 17.0397 24.5889 17.5771 23.5166 18.8591C23.0206 19.4521 22.9921 20.1588 22.9638 20.8604C22.9345 21.5872 22.9054 22.3086 22.3573 22.8926C21.811 23.4748 21.1906 23.5619 20.5247 23.6555C20.0511 23.722 19.5545 23.7917 19.0451 24.0451C18.0985 24.5159 17.5269 25.3031 16.9833 26.0517C16.2765 27.0249 15.617 27.933 14.2424 27.9963C12.7394 28.0655 11.9493 27.15 11.0829 26.146C10.5077 25.4796 9.89899 24.7741 9.02573 24.292C8.42956 23.9629 7.85742 23.8094 7.31259 23.6632C6.49325 23.4434 5.73568 23.2401 5.0511 22.4811C4.39715 21.7559 4.43593 20.8824 4.47423 20.02C4.51411 19.1218 4.55345 18.2357 3.80903 17.542C2.66748 16.4783 0 16.3073 0 16.3073ZM11.7583 7.66397C11.7583 8.61868 11.1651 9.39263 10.4334 9.39263C9.70171 9.39263 9.10854 8.61868 9.10854 7.66397C9.10854 6.70926 9.70171 5.93531 10.4334 5.93531C11.1651 5.93531 11.7583 6.70926 11.7583 7.66397ZM16.561 7.66397C16.561 8.61868 15.9678 9.39263 15.2361 9.39263C14.5044 9.39263 13.9112 8.61868 13.9112 7.66397C13.9112 6.70926 14.5044 5.93531 15.2361 5.93531C15.9678 5.93531 16.561 6.70926 16.561 7.66397ZM12.8348 14.4963C13.8866 14.4963 14.7393 13.7223 14.7393 12.7676C14.7393 11.8129 13.8866 11.039 12.8348 11.039C11.7829 11.039 10.9302 11.8129 10.9302 12.7676C10.9302 13.7223 11.7829 14.4963 12.8348 14.4963Z" fill="#F1A2B7"/>
</svg>
