<svg width="20" height="20" viewBox="0 0 20 20" fill="none" xmlns="http://www.w3.org/2000/svg">
<path fill-rule="evenodd" clip-rule="evenodd" d="M10.0003 13.5582C8.04126 13.5582 6.44219 11.9592 6.44219 10.0001C6.44219 8.04101 8.04126 6.44194 10.0003 6.44194C11.9594 6.44194 13.5585 8.04101 13.5585 10.0001C13.5585 11.9592 11.9594 13.5582 10.0003 13.5582ZM10.0003 7.69776C8.72777 7.69776 7.698 8.72752 7.698 10.0001C7.698 11.2726 8.72777 12.3024 10.0003 12.3024C11.2729 12.3024 12.3027 11.2726 12.3027 10.0001C12.3027 8.72752 11.2729 7.69776 10.0003 7.69776Z" fill="white"/>
<path d="M13.8682 6.16566C13.9687 6.20752 14.0775 6.23264 14.1864 6.23264C14.2952 6.23264 14.404 6.20752 14.5045 6.16566C14.605 6.1238 14.6971 6.0652 14.7808 5.98985C14.8561 5.90613 14.9147 5.81404 14.9566 5.71357C14.9985 5.61311 15.0236 5.50427 15.0236 5.39543C15.0236 5.28659 14.9985 5.17776 14.9566 5.07729C14.9147 4.96845 14.8561 4.88473 14.7808 4.80101C14.5799 4.60846 14.2952 4.51636 14.0273 4.57497C13.9687 4.58334 13.9185 4.60008 13.8682 4.6252C13.818 4.64194 13.7678 4.66706 13.7175 4.70055C13.6896 4.71729 13.6617 4.74148 13.6338 4.76567C13.6199 4.77776 13.6059 4.78985 13.592 4.80101C13.5166 4.88473 13.458 4.96845 13.4078 5.07729C13.3659 5.17776 13.3492 5.28659 13.3492 5.39543C13.3492 5.50427 13.3659 5.61311 13.4078 5.71357C13.4496 5.81404 13.5166 5.90613 13.592 5.98985C13.6757 6.0652 13.7678 6.1238 13.8682 6.16566Z" fill="white"/>
<path fill-rule="evenodd" clip-rule="evenodd" d="M12.5116 19H7.48837C2.94233 19 1 17.0577 1 12.5116V7.48837C1 2.94233 2.94233 1 7.48837 1H12.5116C17.0577 1 19 2.94233 19 7.48837V12.5116C19 17.0577 17.0577 19 12.5116 19ZM7.48837 2.25581C3.62884 2.25581 2.25581 3.62884 2.25581 7.48837V12.5116C2.25581 16.3712 3.62884 17.7442 7.48837 17.7442H12.5116C16.3712 17.7442 17.7442 16.3712 17.7442 12.5116V7.48837C17.7442 3.62884 16.3712 2.25581 12.5116 2.25581H7.48837Z" fill="white"/>
</svg>
