<svg width="20" height="20" viewBox="0 0 20 20" fill="none" xmlns="http://www.w3.org/2000/svg">
<path d="M4.77755 3.38973C4.77729 3.89067 4.57806 4.37099 4.22367 4.72502C3.86928 5.07906 3.38876 5.27782 2.88783 5.27757C2.38689 5.27732 1.90658 5.07808 1.55254 4.72369C1.1985 4.3693 0.99975 3.88878 1 3.38784C1.00025 2.8869 1.19949 2.40658 1.55388 2.05254C1.90827 1.69851 2.38878 1.49975 2.88972 1.5C3.39065 1.50025 3.87097 1.69949 4.225 2.05388C4.57904 2.40827 4.7778 2.88879 4.77755 3.38973ZM4.83421 6.67621H1.05666V18.5H4.83421V6.67621ZM10.8027 6.67621H7.04407V18.5H10.765V12.2953C10.765 8.83887 15.2697 8.51778 15.2697 12.2953V18.5H19V11.011C19 5.18407 12.3326 5.40128 10.765 8.26279L10.8027 6.67621Z" fill="white"/>
</svg>
