<svg width="100" height="32" viewBox="0 0 100 32" fill="none" xmlns="http://www.w3.org/2000/svg">
<path fill-rule="evenodd" clip-rule="evenodd" d="M2 18.3073C2 18.3073 2.15583 15.5321 3.07646 14.1091C3.78534 13.0134 4.70159 12.6102 5.69497 12.1731C6.34687 11.8862 7.032 11.5848 7.71354 11.0634C9.20304 9.92381 9.67905 8.38065 10.1389 6.88992C10.8713 4.51562 11.5627 2.2743 16.2424 2.00847C22.0388 1.6792 24.3573 11.0634 24.3573 11.0634C24.3573 11.0634 28.1128 12.1578 29.16 14.1091C30.1646 15.981 29.9881 19.0397 29.9881 19.0397C29.9881 19.0397 26.5889 19.5771 25.5166 20.8591C25.0206 21.4521 24.9921 22.1588 24.9638 22.8604C24.9345 23.5872 24.9054 24.3086 24.3573 24.8926C23.811 25.4748 23.1906 25.5619 22.5247 25.6555C22.0511 25.722 21.5545 25.7917 21.0451 26.0451C20.0985 26.5159 19.5269 27.3031 18.9833 28.0517C18.2765 29.0249 17.617 29.933 16.2424 29.9963C14.7394 30.0655 13.9493 29.15 13.0829 28.146C12.5077 27.4796 11.899 26.7741 11.0257 26.292C10.4296 25.9629 9.85742 25.8094 9.31259 25.6632C8.49325 25.4434 7.73568 25.2401 7.0511 24.4811C6.39715 23.7559 6.43593 22.8824 6.47423 22.02C6.51411 21.1218 6.55345 20.2357 5.80903 19.542C4.66748 18.4783 2 18.3073 2 18.3073ZM13.7583 9.66397C13.7583 10.6187 13.1651 11.3926 12.4334 11.3926C11.7017 11.3926 11.1085 10.6187 11.1085 9.66397C11.1085 8.70926 11.7017 7.93531 12.4334 7.93531C13.1651 7.93531 13.7583 8.70926 13.7583 9.66397ZM18.561 9.66397C18.561 10.6187 17.9678 11.3926 17.2361 11.3926C16.5044 11.3926 15.9112 10.6187 15.9112 9.66397C15.9112 8.70926 16.5044 7.93531 17.2361 7.93531C17.9678 7.93531 18.561 8.70926 18.561 9.66397ZM14.8348 16.4963C15.8866 16.4963 16.7393 15.7223 16.7393 14.7676C16.7393 13.8129 15.8866 13.039 14.8348 13.039C13.7829 13.039 12.9302 13.8129 12.9302 14.7676C12.9302 15.7223 13.7829 16.4963 14.8348 16.4963Z" fill="#D2FF3C" stroke="#0E0E0E"/>
<path d="M44.1467 23C48.6432 23 50.3346 20.8794 50.3346 17.3382V9H47.055V17.3382C47.055 19.2735 46.5806 19.9941 44.1467 19.9941C41.6921 19.9941 41.2796 19.2324 41.2796 17.1941V16.5971H38V17.1941C38 20.8382 39.6707 23 44.1467 23Z" fill="#0E0E0E"/>
<path d="M56.0159 22.7941V17.7912H58.0579C59.6668 17.7912 60.1824 18.1412 60.7393 19.2118L62.637 22.7941H66.226L64.2252 19.0882C63.7095 18.1206 63.2351 17.4618 61.9976 17.1324V16.9676C64.5965 16.7206 65.8959 15.3824 65.8959 13.1382C65.8959 10.5029 63.9571 9 60.5537 9H52.9219V22.7941H56.0159ZM56.0159 11.7794H60.5331C61.9976 11.7794 62.6576 12.2529 62.6576 13.6118C62.6576 15.0529 61.9976 15.4647 60.5331 15.4647H56.0159V11.7794Z" fill="#0E0E0E"/>
<path d="M75.062 22.7941C79.4967 22.7941 82.3018 20.2206 82.3018 15.8971C82.3018 11.5735 79.4967 9 75.062 9H68.3996V22.7941H75.062ZM75.062 11.7794C77.8672 11.7794 79.0016 12.5824 79.0016 15.8971C79.0016 19.2118 77.8672 20.0147 75.062 20.0147H71.4936V11.7794H75.062Z" fill="#0E0E0E"/>
<path d="M87.7693 22.7941V16.1441L87.6455 13.6118H87.8518L89.6051 16.2059L94.6998 22.7941H98V9H94.906V15.65L95.0504 18.4294H94.8235L92.9259 15.5265L87.9756 9H84.6753V22.7941H87.7693Z" fill="#0E0E0E"/>
</svg>
