<svg width="20" height="20" viewBox="0 0 20 20" fill="none" xmlns="http://www.w3.org/2000/svg">
<path d="M3.1348 5.56C3.14583 5.44587 3.13106 5.33064 3.09168 5.22353C3.05229 5.11641 2.98939 5.02038 2.908 4.94313L1.2268 2.81781V2.5H6.445L10.4788 11.7859L14.0248 2.5H19V2.81781L17.5627 4.2625C17.5018 4.31148 17.4548 4.37678 17.4267 4.45141C17.3987 4.52604 17.3906 4.60721 17.4034 4.68625V15.3119C17.3906 15.3909 17.3987 15.4721 17.4267 15.5467C17.4548 15.6214 17.5018 15.6866 17.5627 15.7356L18.9667 17.1812V17.5H11.9071V17.1822L13.3615 15.7009C13.5046 15.5509 13.5046 15.5069 13.5046 15.2781V6.68875L9.4618 17.4644H8.9164L4.2094 6.68875V13.9113C4.1707 14.2141 4.267 14.5206 4.4704 14.74L6.3613 17.1475V17.4644H1V17.1475L2.89 14.74C2.99 14.6313 3.06422 14.4998 3.10672 14.3559C3.14923 14.212 3.15884 14.0597 3.1348 13.9113V5.56Z" fill="white"/>
</svg>
